<mxfile host="65bd71144e">
    <diagram id="Au0YkBzmXcBieuE35LQP" name="Page-1">
        <mxGraphModel dx="-454" dy="1537" grid="1" gridSize="10" guides="1" tooltips="1" connect="1" arrows="1" fold="1" page="1" pageScale="1" pageWidth="827" pageHeight="1169" math="0" shadow="0">
            <root>
                <mxCell id="0"/>
                <mxCell id="1" parent="0"/>
                <mxCell id="144" value="" style="edgeStyle=none;html=1;" edge="1" parent="1" source="145" target="147">
                    <mxGeometry relative="1" as="geometry"/>
                </mxCell>
                <mxCell id="145" value="Inicio" style="ellipse;whiteSpace=wrap;html=1;fillColor=#60a917;fontColor=#ffffff;strokeColor=#2D7600;" vertex="1" parent="1">
                    <mxGeometry x="3930" y="490" width="120" height="80" as="geometry"/>
                </mxCell>
                <mxCell id="146" value="" style="edgeStyle=none;html=1;" edge="1" parent="1" source="147" target="149">
                    <mxGeometry relative="1" as="geometry"/>
                </mxCell>
                <mxCell id="147" value="j" style="shape=parallelogram;perimeter=parallelogramPerimeter;whiteSpace=wrap;html=1;fixedSize=1;fillColor=#008a00;fontColor=#ffffff;strokeColor=#005700;" vertex="1" parent="1">
                    <mxGeometry x="3930" y="610" width="120" height="60" as="geometry"/>
                </mxCell>
                <mxCell id="148" value="" style="edgeStyle=none;html=1;" edge="1" parent="1" source="149" target="152">
                    <mxGeometry relative="1" as="geometry"/>
                </mxCell>
                <mxCell id="149" value="m = random.randint(1,3)" style="whiteSpace=wrap;html=1;fillColor=#d80073;fontColor=#ffffff;strokeColor=#A50040;" vertex="1" parent="1">
                    <mxGeometry x="3930" y="720" width="120" height="60" as="geometry"/>
                </mxCell>
                <mxCell id="150" value="" style="edgeStyle=none;html=1;" edge="1" parent="1" source="152">
                    <mxGeometry relative="1" as="geometry">
                        <mxPoint x="4330" y="910" as="targetPoint"/>
                        <Array as="points">
                            <mxPoint x="4170" y="865"/>
                            <mxPoint x="4330" y="865"/>
                        </Array>
                    </mxGeometry>
                </mxCell>
                <mxCell id="151" style="edgeStyle=none;html=1;entryX=0.5;entryY=0;entryDx=0;entryDy=0;" edge="1" parent="1" source="152" target="162">
                    <mxGeometry relative="1" as="geometry">
                        <mxPoint x="3780" y="910" as="targetPoint"/>
                        <Array as="points">
                            <mxPoint x="3660" y="865"/>
                        </Array>
                    </mxGeometry>
                </mxCell>
                <mxCell id="152" value="(j==1):" style="rhombus;whiteSpace=wrap;html=1;fillColor=#f0a30a;fontColor=#000000;strokeColor=#BD7000;" vertex="1" parent="1">
                    <mxGeometry x="3940" y="820" width="100" height="90" as="geometry"/>
                </mxCell>
                <mxCell id="153" value="" style="edgeStyle=none;html=1;" edge="1" parent="1" source="155">
                    <mxGeometry relative="1" as="geometry">
                        <mxPoint x="4500" y="995" as="targetPoint"/>
                        <Array as="points">
                            <mxPoint x="4500" y="955"/>
                        </Array>
                    </mxGeometry>
                </mxCell>
                <mxCell id="154" value="" style="edgeStyle=none;html=1;entryX=0.5;entryY=0;entryDx=0;entryDy=0;" edge="1" parent="1" source="155" target="158">
                    <mxGeometry relative="1" as="geometry">
                        <mxPoint x="4020" y="990" as="targetPoint"/>
                        <Array as="points">
                            <mxPoint x="4160" y="955"/>
                        </Array>
                    </mxGeometry>
                </mxCell>
                <mxCell id="155" value="(m==1):" style="rhombus;whiteSpace=wrap;html=1;fillColor=#f0a30a;fontColor=#000000;strokeColor=#BD7000;" vertex="1" parent="1">
                    <mxGeometry x="4280" y="910" width="100" height="90" as="geometry"/>
                </mxCell>
                <mxCell id="156" value="" style="edgeStyle=none;html=1;entryX=0.5;entryY=0;entryDx=0;entryDy=0;" edge="1" parent="1" source="158" target="159">
                    <mxGeometry relative="1" as="geometry">
                        <mxPoint x="3890" y="1090" as="targetPoint"/>
                        <Array as="points">
                            <mxPoint x="4073" y="1030"/>
                        </Array>
                    </mxGeometry>
                </mxCell>
                <mxCell id="157" style="edgeStyle=none;html=1;entryX=0.4;entryY=0.077;entryDx=0;entryDy=0;entryPerimeter=0;" edge="1" parent="1" source="158" target="172">
                    <mxGeometry relative="1" as="geometry">
                        <mxPoint x="4310" y="1080" as="targetPoint"/>
                        <Array as="points">
                            <mxPoint x="4310" y="1030"/>
                        </Array>
                    </mxGeometry>
                </mxCell>
                <mxCell id="158" value="(m==2):" style="rhombus;whiteSpace=wrap;html=1;fillColor=#f0a30a;fontColor=#000000;strokeColor=#BD7000;" vertex="1" parent="1">
                    <mxGeometry x="4110" y="985" width="100" height="90" as="geometry"/>
                </mxCell>
                <mxCell id="159" value="Felicidades, ganaste" style="shape=document;whiteSpace=wrap;html=1;boundedLbl=1;size=0.2;fillColor=#fa6800;fontColor=#ffffff;strokeColor=#C73500;" vertex="1" parent="1">
                    <mxGeometry x="4020" y="1100" width="105" height="60" as="geometry"/>
                </mxCell>
                <mxCell id="160" value="" style="edgeStyle=none;html=1;" edge="1" parent="1" source="162">
                    <mxGeometry relative="1" as="geometry">
                        <mxPoint x="3827.727272727273" y="980" as="targetPoint"/>
                        <Array as="points">
                            <mxPoint x="3830" y="955"/>
                        </Array>
                    </mxGeometry>
                </mxCell>
                <mxCell id="161" style="edgeStyle=none;html=1;entryX=0.5;entryY=0;entryDx=0;entryDy=0;" edge="1" parent="1" source="162" target="176">
                    <mxGeometry relative="1" as="geometry">
                        <mxPoint x="3280" y="1010" as="targetPoint"/>
                        <Array as="points">
                            <mxPoint x="3280" y="955"/>
                            <mxPoint x="3180" y="955"/>
                        </Array>
                    </mxGeometry>
                </mxCell>
                <mxCell id="162" value="(j==2):" style="rhombus;whiteSpace=wrap;html=1;fillColor=#f0a30a;fontColor=#000000;strokeColor=#BD7000;" vertex="1" parent="1">
                    <mxGeometry x="3610" y="910" width="100" height="90" as="geometry"/>
                </mxCell>
                <mxCell id="163" style="edgeStyle=none;html=1;entryX=0.5;entryY=0;entryDx=0;entryDy=0;" edge="1" parent="1" source="165" target="166">
                    <mxGeometry relative="1" as="geometry">
                        <Array as="points">
                            <mxPoint x="3940" y="1025"/>
                        </Array>
                    </mxGeometry>
                </mxCell>
                <mxCell id="164" value="" style="edgeStyle=none;html=1;" edge="1" parent="1" source="165">
                    <mxGeometry relative="1" as="geometry">
                        <mxPoint x="3680" y="1060" as="targetPoint"/>
                        <Array as="points">
                            <mxPoint x="3680" y="1025"/>
                        </Array>
                    </mxGeometry>
                </mxCell>
                <mxCell id="165" value="(m==1):" style="rhombus;whiteSpace=wrap;html=1;fillColor=#f0a30a;fontColor=#000000;strokeColor=#BD7000;" vertex="1" parent="1">
                    <mxGeometry x="3780" y="980" width="100" height="90" as="geometry"/>
                </mxCell>
                <mxCell id="166" value="Felicidades, ganaste" style="shape=document;whiteSpace=wrap;html=1;boundedLbl=1;fillColor=#fa6800;fontColor=#ffffff;strokeColor=#C73500;" vertex="1" parent="1">
                    <mxGeometry x="3890" y="1060" width="100" height="65" as="geometry"/>
                </mxCell>
                <mxCell id="167" value="" style="edgeStyle=none;html=1;" edge="1" parent="1" source="169">
                    <mxGeometry relative="1" as="geometry">
                        <mxPoint x="3830" y="1150" as="targetPoint"/>
                        <Array as="points">
                            <mxPoint x="3830" y="1105"/>
                        </Array>
                    </mxGeometry>
                </mxCell>
                <mxCell id="168" style="edgeStyle=none;html=1;entryX=0.5;entryY=0;entryDx=0;entryDy=0;" edge="1" parent="1" source="169" target="171">
                    <mxGeometry relative="1" as="geometry">
                        <Array as="points">
                            <mxPoint x="3570" y="1105"/>
                        </Array>
                    </mxGeometry>
                </mxCell>
                <mxCell id="169" value="(m==2):" style="rhombus;whiteSpace=wrap;html=1;fillColor=#f0a30a;fontColor=#000000;strokeColor=#BD7000;" vertex="1" parent="1">
                    <mxGeometry x="3630" y="1060" width="100" height="90" as="geometry"/>
                </mxCell>
                <mxCell id="170" value="Empate" style="shape=document;whiteSpace=wrap;html=1;boundedLbl=1;fillColor=#fa6800;fontColor=#ffffff;strokeColor=#C73500;" vertex="1" parent="1">
                    <mxGeometry x="3780" y="1150" width="110" height="65" as="geometry"/>
                </mxCell>
                <mxCell id="171" value="Lo siento, perdiste" style="shape=document;whiteSpace=wrap;html=1;boundedLbl=1;fillColor=#fa6800;fontColor=#ffffff;strokeColor=#C73500;" vertex="1" parent="1">
                    <mxGeometry x="3520" y="1140" width="100" height="65" as="geometry"/>
                </mxCell>
                <mxCell id="172" value="Lo siento, perdiste" style="shape=document;whiteSpace=wrap;html=1;boundedLbl=1;fillColor=#fa6800;fontColor=#ffffff;strokeColor=#C73500;" vertex="1" parent="1">
                    <mxGeometry x="4270" y="1085" width="100" height="65" as="geometry"/>
                </mxCell>
                <mxCell id="173" value="Empate" style="shape=document;whiteSpace=wrap;html=1;boundedLbl=1;fillColor=#fa6800;fontColor=#ffffff;strokeColor=#C73500;" vertex="1" parent="1">
                    <mxGeometry x="4450" y="995" width="110" height="65" as="geometry"/>
                </mxCell>
                <mxCell id="174" style="edgeStyle=none;html=1;entryX=0.5;entryY=0.056;entryDx=0;entryDy=0;entryPerimeter=0;" edge="1" parent="1" source="176" target="179">
                    <mxGeometry relative="1" as="geometry">
                        <mxPoint x="3410" y="1080" as="targetPoint"/>
                        <Array as="points">
                            <mxPoint x="3330" y="1055"/>
                        </Array>
                    </mxGeometry>
                </mxCell>
                <mxCell id="175" style="edgeStyle=none;html=1;entryX=0.5;entryY=0;entryDx=0;entryDy=0;" edge="1" parent="1" source="176" target="188">
                    <mxGeometry relative="1" as="geometry">
                        <mxPoint x="3010" y="1090" as="targetPoint"/>
                        <Array as="points">
                            <mxPoint x="2910" y="1055"/>
                        </Array>
                    </mxGeometry>
                </mxCell>
                <mxCell id="176" value="(j==3)." style="rhombus;whiteSpace=wrap;html=1;fillColor=#f0a30a;fontColor=#000000;strokeColor=#BD7000;" vertex="1" parent="1">
                    <mxGeometry x="3130" y="1010" width="100" height="90" as="geometry"/>
                </mxCell>
                <mxCell id="177" style="edgeStyle=none;html=1;" edge="1" parent="1" source="179">
                    <mxGeometry relative="1" as="geometry">
                        <mxPoint x="3460" y="1180" as="targetPoint"/>
                        <Array as="points">
                            <mxPoint x="3460" y="1130"/>
                        </Array>
                    </mxGeometry>
                </mxCell>
                <mxCell id="178" style="edgeStyle=none;html=1;" edge="1" parent="1" source="179">
                    <mxGeometry relative="1" as="geometry">
                        <mxPoint x="3230" y="1180" as="targetPoint"/>
                        <Array as="points">
                            <mxPoint x="3230" y="1130"/>
                        </Array>
                    </mxGeometry>
                </mxCell>
                <mxCell id="179" value="(m==1):" style="rhombus;whiteSpace=wrap;html=1;fillColor=#f0a30a;fontColor=#000000;strokeColor=#BD7000;" vertex="1" parent="1">
                    <mxGeometry x="3280" y="1085" width="100" height="90" as="geometry"/>
                </mxCell>
                <mxCell id="180" value="Lo siento, perdiste" style="shape=document;whiteSpace=wrap;html=1;boundedLbl=1;fillColor=#fa6800;fontColor=#ffffff;strokeColor=#C73500;" vertex="1" parent="1">
                    <mxGeometry x="3410" y="1175" width="100" height="65" as="geometry"/>
                </mxCell>
                <mxCell id="181" style="edgeStyle=none;html=1;" edge="1" parent="1" source="183">
                    <mxGeometry relative="1" as="geometry">
                        <mxPoint x="3350" y="1260" as="targetPoint"/>
                        <Array as="points">
                            <mxPoint x="3350" y="1220"/>
                        </Array>
                    </mxGeometry>
                </mxCell>
                <mxCell id="182" style="edgeStyle=none;html=1;entryX=0.5;entryY=0;entryDx=0;entryDy=0;fontColor=#666600;" edge="1" parent="1" source="183" target="185">
                    <mxGeometry relative="1" as="geometry">
                        <Array as="points">
                            <mxPoint x="3145" y="1220"/>
                        </Array>
                    </mxGeometry>
                </mxCell>
                <mxCell id="183" value="(m==2):" style="rhombus;whiteSpace=wrap;html=1;fillColor=#f0a30a;fontColor=#000000;strokeColor=#BD7000;" vertex="1" parent="1">
                    <mxGeometry x="3180" y="1175" width="100" height="90" as="geometry"/>
                </mxCell>
                <mxCell id="184" value="Felicidades, ganaste" style="shape=document;whiteSpace=wrap;html=1;boundedLbl=1;fillColor=#fa6800;fontColor=#ffffff;strokeColor=#C73500;" vertex="1" parent="1">
                    <mxGeometry x="3310" y="1260" width="100" height="65" as="geometry"/>
                </mxCell>
                <mxCell id="185" value="Empate" style="shape=document;whiteSpace=wrap;html=1;boundedLbl=1;fillColor=#fa6800;fontColor=#ffffff;strokeColor=#C73500;" vertex="1" parent="1">
                    <mxGeometry x="3090" y="1260" width="110" height="65" as="geometry"/>
                </mxCell>
                <mxCell id="186" style="edgeStyle=none;html=1;" edge="1" parent="1" source="188">
                    <mxGeometry relative="1" as="geometry">
                        <mxPoint x="3050" y="1160" as="targetPoint"/>
                        <Array as="points">
                            <mxPoint x="3050" y="1135"/>
                        </Array>
                    </mxGeometry>
                </mxCell>
                <mxCell id="187" style="edgeStyle=none;html=1;" edge="1" parent="1" source="188">
                    <mxGeometry relative="1" as="geometry">
                        <mxPoint x="2780" y="1160" as="targetPoint"/>
                        <Array as="points">
                            <mxPoint x="2780" y="1135"/>
                        </Array>
                    </mxGeometry>
                </mxCell>
                <mxCell id="188" value="(j&amp;gt; 4):" style="rhombus;whiteSpace=wrap;html=1;fillColor=#f0a30a;fontColor=#000000;strokeColor=#BD7000;" vertex="1" parent="1">
                    <mxGeometry x="2860" y="1090" width="100" height="90" as="geometry"/>
                </mxCell>
                <mxCell id="189" value="Lo siento, ingresaste una opción inválida" style="shape=document;whiteSpace=wrap;html=1;boundedLbl=1;fillColor=#fa6800;fontColor=#ffffff;strokeColor=#C73500;" vertex="1" parent="1">
                    <mxGeometry x="2995" y="1160" width="110" height="65" as="geometry"/>
                </mxCell>
                <mxCell id="190" value="Lo siento, ingresaste una opción inválida" style="shape=document;whiteSpace=wrap;html=1;boundedLbl=1;fillColor=#fa6800;fontColor=#ffffff;strokeColor=#C73500;" vertex="1" parent="1">
                    <mxGeometry x="2730" y="1160" width="110" height="65" as="geometry"/>
                </mxCell>
                <mxCell id="191" value="&lt;font color=&quot;#666600&quot;&gt;True&lt;/font&gt;" style="text;html=1;strokeColor=none;fillColor=none;align=center;verticalAlign=middle;whiteSpace=wrap;rounded=0;" vertex="1" parent="1">
                    <mxGeometry x="4170" y="830" width="60" height="30" as="geometry"/>
                </mxCell>
                <mxCell id="192" value="&lt;font color=&quot;#666600&quot;&gt;True&lt;/font&gt;" style="text;html=1;strokeColor=none;fillColor=none;align=center;verticalAlign=middle;whiteSpace=wrap;rounded=0;" vertex="1" parent="1">
                    <mxGeometry x="4410" y="920" width="60" height="30" as="geometry"/>
                </mxCell>
                <mxCell id="193" value="&lt;font color=&quot;#666600&quot;&gt;True&lt;/font&gt;" style="text;html=1;strokeColor=none;fillColor=none;align=center;verticalAlign=middle;whiteSpace=wrap;rounded=0;" vertex="1" parent="1">
                    <mxGeometry x="4230" y="995" width="60" height="30" as="geometry"/>
                </mxCell>
                <mxCell id="194" value="&lt;font color=&quot;#666600&quot;&gt;True&lt;/font&gt;" style="text;html=1;strokeColor=none;fillColor=none;align=center;verticalAlign=middle;whiteSpace=wrap;rounded=0;" vertex="1" parent="1">
                    <mxGeometry x="3740" y="920" width="60" height="30" as="geometry"/>
                </mxCell>
                <mxCell id="195" value="&lt;font color=&quot;#666600&quot;&gt;True&lt;/font&gt;" style="text;html=1;strokeColor=none;fillColor=none;align=center;verticalAlign=middle;whiteSpace=wrap;rounded=0;" vertex="1" parent="1">
                    <mxGeometry x="3890" y="995" width="60" height="30" as="geometry"/>
                </mxCell>
                <mxCell id="196" value="&lt;font color=&quot;#666600&quot;&gt;True&lt;/font&gt;" style="text;html=1;strokeColor=none;fillColor=none;align=center;verticalAlign=middle;whiteSpace=wrap;rounded=0;" vertex="1" parent="1">
                    <mxGeometry x="3760" y="1075" width="60" height="30" as="geometry"/>
                </mxCell>
                <mxCell id="197" value="&lt;font color=&quot;#666600&quot;&gt;True&lt;/font&gt;" style="text;html=1;strokeColor=none;fillColor=none;align=center;verticalAlign=middle;whiteSpace=wrap;rounded=0;" vertex="1" parent="1">
                    <mxGeometry x="3390" y="1090" width="60" height="30" as="geometry"/>
                </mxCell>
                <mxCell id="198" value="&lt;font color=&quot;#666600&quot;&gt;True&lt;/font&gt;" style="text;html=1;strokeColor=none;fillColor=none;align=center;verticalAlign=middle;whiteSpace=wrap;rounded=0;" vertex="1" parent="1">
                    <mxGeometry x="3280" y="1185" width="60" height="30" as="geometry"/>
                </mxCell>
                <mxCell id="199" value="&lt;font color=&quot;#666600&quot;&gt;True&lt;/font&gt;" style="text;html=1;strokeColor=none;fillColor=none;align=center;verticalAlign=middle;whiteSpace=wrap;rounded=0;" vertex="1" parent="1">
                    <mxGeometry x="2980" y="1105" width="60" height="30" as="geometry"/>
                </mxCell>
                <mxCell id="200" value="&lt;font color=&quot;#666600&quot;&gt;True&lt;/font&gt;" style="text;html=1;strokeColor=none;fillColor=none;align=center;verticalAlign=middle;whiteSpace=wrap;rounded=0;" vertex="1" parent="1">
                    <mxGeometry x="3250" y="1025" width="60" height="30" as="geometry"/>
                </mxCell>
                <mxCell id="201" value="&lt;font color=&quot;#ff0000&quot;&gt;False&lt;/font&gt;&lt;span style=&quot;color: rgba(0, 0, 0, 0); font-family: monospace; font-size: 0px; text-align: start;&quot;&gt;%3CmxGraphModel%3E%3Croot%3E%3CmxCell%20id%3D%220%22%2F%3E%3CmxCell%20id%3D%221%22%20parent%3D%220%22%2F%3E%3CmxCell%20id%3D%222%22%20value%3D%22%26lt%3Bfont%20color%3D%26quot%3B%23666600%26quot%3B%26gt%3BTrue%26lt%3B%2Ffont%26gt%3B%22%20style%3D%22text%3Bhtml%3D1%3BstrokeColor%3Dnone%3BfillColor%3Dnone%3Balign%3Dcenter%3BverticalAlign%3Dmiddle%3BwhiteSpace%3Dwrap%3Brounded%3D0%3B%22%20vertex%3D%221%22%20parent%3D%221%22%3E%3CmxGeometry%20x%3D%22-250%22%20y%3D%22875%22%20width%3D%2260%22%20height%3D%2230%22%20as%3D%22geometry%22%2F%3E%3C%2FmxCell%3E%3C%2Froot%3E%3C%2FmxGraphModel%3E&lt;/span&gt;&lt;span style=&quot;color: rgba(0, 0, 0, 0); font-family: monospace; font-size: 0px; text-align: start;&quot;&gt;%3CmxGraphModel%3E%3Croot%3E%3CmxCell%20id%3D%220%22%2F%3E%3CmxCell%20id%3D%221%22%20parent%3D%220%22%2F%3E%3CmxCell%20id%3D%222%22%20value%3D%22%26lt%3Bfont%20color%3D%26quot%3B%23666600%26quot%3B%26gt%3BTrue%26lt%3B%2Ffont%26gt%3B%22%20style%3D%22text%3Bhtml%3D1%3BstrokeColor%3Dnone%3BfillColor%3Dnone%3Balign%3Dcenter%3BverticalAlign%3Dmiddle%3BwhiteSpace%3Dwrap%3Brounded%3D0%3B%22%20vertex%3D%221%22%20parent%3D%221%22%3E%3CmxGeometry%20x%3D%22-250%22%20y%3D%22875%22%20width%3D%2260%22%20height%3D%2230%22%20as%3D%22geometry%22%2F%3E%3C%2FmxCell%3E%3C%2Froot%3E%3C%2FmxGraphModel%3E&lt;/span&gt;" style="text;html=1;strokeColor=none;fillColor=none;align=center;verticalAlign=middle;whiteSpace=wrap;rounded=0;fontColor=#666600;" vertex="1" parent="1">
                    <mxGeometry x="3780" y="830" width="60" height="30" as="geometry"/>
                </mxCell>
                <mxCell id="202" value="&lt;font color=&quot;#ff0000&quot;&gt;False&lt;/font&gt;&lt;span style=&quot;color: rgba(0, 0, 0, 0); font-family: monospace; font-size: 0px; text-align: start;&quot;&gt;%3CmxGraphModel%3E%3Croot%3E%3CmxCell%20id%3D%220%22%2F%3E%3CmxCell%20id%3D%221%22%20parent%3D%220%22%2F%3E%3CmxCell%20id%3D%222%22%20value%3D%22%26lt%3Bfont%20color%3D%26quot%3B%23666600%26quot%3B%26gt%3BTrue%26lt%3B%2Ffont%26gt%3B%22%20style%3D%22text%3Bhtml%3D1%3BstrokeColor%3Dnone%3BfillColor%3Dnone%3Balign%3Dcenter%3BverticalAlign%3Dmiddle%3BwhiteSpace%3Dwrap%3Brounded%3D0%3B%22%20vertex%3D%221%22%20parent%3D%221%22%3E%3CmxGeometry%20x%3D%22-250%22%20y%3D%22875%22%20width%3D%2260%22%20height%3D%2230%22%20as%3D%22geometry%22%2F%3E%3C%2FmxCell%3E%3C%2Froot%3E%3C%2FmxGraphModel%3E&lt;/span&gt;&lt;span style=&quot;color: rgba(0, 0, 0, 0); font-family: monospace; font-size: 0px; text-align: start;&quot;&gt;%3CmxGraphModel%3E%3Croot%3E%3CmxCell%20id%3D%220%22%2F%3E%3CmxCell%20id%3D%221%22%20parent%3D%220%22%2F%3E%3CmxCell%20id%3D%222%22%20value%3D%22%26lt%3Bfont%20color%3D%26quot%3B%23666600%26quot%3B%26gt%3BTrue%26lt%3B%2Ffont%26gt%3B%22%20style%3D%22text%3Bhtml%3D1%3BstrokeColor%3Dnone%3BfillColor%3Dnone%3Balign%3Dcenter%3BverticalAlign%3Dmiddle%3BwhiteSpace%3Dwrap%3Brounded%3D0%3B%22%20vertex%3D%221%22%20parent%3D%221%22%3E%3CmxGeometry%20x%3D%22-250%22%20y%3D%22875%22%20width%3D%2260%22%20height%3D%2230%22%20as%3D%22geometry%22%2F%3E%3C%2FmxCell%3E%3C%2Froot%3E%3C%2FmxGraphModel%3E&lt;/span&gt;" style="text;html=1;strokeColor=none;fillColor=none;align=center;verticalAlign=middle;whiteSpace=wrap;rounded=0;fontColor=#666600;" vertex="1" parent="1">
                    <mxGeometry x="4200" y="920" width="60" height="30" as="geometry"/>
                </mxCell>
                <mxCell id="203" value="&lt;font color=&quot;#ff0000&quot;&gt;False&lt;/font&gt;&lt;span style=&quot;color: rgba(0, 0, 0, 0); font-family: monospace; font-size: 0px; text-align: start;&quot;&gt;%3CmxGraphModel%3E%3Croot%3E%3CmxCell%20id%3D%220%22%2F%3E%3CmxCell%20id%3D%221%22%20parent%3D%220%22%2F%3E%3CmxCell%20id%3D%222%22%20value%3D%22%26lt%3Bfont%20color%3D%26quot%3B%23666600%26quot%3B%26gt%3BTrue%26lt%3B%2Ffont%26gt%3B%22%20style%3D%22text%3Bhtml%3D1%3BstrokeColor%3Dnone%3BfillColor%3Dnone%3Balign%3Dcenter%3BverticalAlign%3Dmiddle%3BwhiteSpace%3Dwrap%3Brounded%3D0%3B%22%20vertex%3D%221%22%20parent%3D%221%22%3E%3CmxGeometry%20x%3D%22-250%22%20y%3D%22875%22%20width%3D%2260%22%20height%3D%2230%22%20as%3D%22geometry%22%2F%3E%3C%2FmxCell%3E%3C%2Froot%3E%3C%2FmxGraphModel%3E&lt;/span&gt;&lt;span style=&quot;color: rgba(0, 0, 0, 0); font-family: monospace; font-size: 0px; text-align: start;&quot;&gt;%3CmxGraphModel%3E%3Croot%3E%3CmxCell%20id%3D%220%22%2F%3E%3CmxCell%20id%3D%221%22%20parent%3D%220%22%2F%3E%3CmxCell%20id%3D%222%22%20value%3D%22%26lt%3Bfont%20color%3D%26quot%3B%23666600%26quot%3B%26gt%3BTrue%26lt%3B%2Ffont%26gt%3B%22%20style%3D%22text%3Bhtml%3D1%3BstrokeColor%3Dnone%3BfillColor%3Dnone%3Balign%3Dcenter%3BverticalAlign%3Dmiddle%3BwhiteSpace%3Dwrap%3Brounded%3D0%3B%22%20vertex%3D%221%22%20parent%3D%221%22%3E%3CmxGeometry%20x%3D%22-250%22%20y%3D%22875%22%20width%3D%2260%22%20height%3D%2230%22%20as%3D%22geometry%22%2F%3E%3C%2FmxCell%3E%3C%2Froot%3E%3C%2FmxGraphModel%3E&lt;/span&gt;" style="text;html=1;strokeColor=none;fillColor=none;align=center;verticalAlign=middle;whiteSpace=wrap;rounded=0;fontColor=#666600;" vertex="1" parent="1">
                    <mxGeometry x="4042.5" y="995" width="60" height="30" as="geometry"/>
                </mxCell>
                <mxCell id="204" value="&lt;font color=&quot;#ff0000&quot;&gt;False&lt;/font&gt;&lt;span style=&quot;color: rgba(0, 0, 0, 0); font-family: monospace; font-size: 0px; text-align: start;&quot;&gt;%3CmxGraphModel%3E%3Croot%3E%3CmxCell%20id%3D%220%22%2F%3E%3CmxCell%20id%3D%221%22%20parent%3D%220%22%2F%3E%3CmxCell%20id%3D%222%22%20value%3D%22%26lt%3Bfont%20color%3D%26quot%3B%23666600%26quot%3B%26gt%3BTrue%26lt%3B%2Ffont%26gt%3B%22%20style%3D%22text%3Bhtml%3D1%3BstrokeColor%3Dnone%3BfillColor%3Dnone%3Balign%3Dcenter%3BverticalAlign%3Dmiddle%3BwhiteSpace%3Dwrap%3Brounded%3D0%3B%22%20vertex%3D%221%22%20parent%3D%221%22%3E%3CmxGeometry%20x%3D%22-250%22%20y%3D%22875%22%20width%3D%2260%22%20height%3D%2230%22%20as%3D%22geometry%22%2F%3E%3C%2FmxCell%3E%3C%2Froot%3E%3C%2FmxGraphModel%3E&lt;/span&gt;&lt;span style=&quot;color: rgba(0, 0, 0, 0); font-family: monospace; font-size: 0px; text-align: start;&quot;&gt;%3CmxGraphModel%3E%3Croot%3E%3CmxCell%20id%3D%220%22%2F%3E%3CmxCell%20id%3D%221%22%20parent%3D%220%22%2F%3E%3CmxCell%20id%3D%222%22%20value%3D%22%26lt%3Bfont%20color%3D%26quot%3B%23666600%26quot%3B%26gt%3BTrue%26lt%3B%2Ffont%26gt%3B%22%20style%3D%22text%3Bhtml%3D1%3BstrokeColor%3Dnone%3BfillColor%3Dnone%3Balign%3Dcenter%3BverticalAlign%3Dmiddle%3BwhiteSpace%3Dwrap%3Brounded%3D0%3B%22%20vertex%3D%221%22%20parent%3D%221%22%3E%3CmxGeometry%20x%3D%22-250%22%20y%3D%22875%22%20width%3D%2260%22%20height%3D%2230%22%20as%3D%22geometry%22%2F%3E%3C%2FmxCell%3E%3C%2Froot%3E%3C%2FmxGraphModel%3E&lt;/span&gt;" style="text;html=1;strokeColor=none;fillColor=none;align=center;verticalAlign=middle;whiteSpace=wrap;rounded=0;fontColor=#666600;" vertex="1" parent="1">
                    <mxGeometry x="3710" y="990" width="60" height="30" as="geometry"/>
                </mxCell>
                <mxCell id="205" value="&lt;font color=&quot;#ff0000&quot;&gt;False&lt;/font&gt;&lt;span style=&quot;color: rgba(0, 0, 0, 0); font-family: monospace; font-size: 0px; text-align: start;&quot;&gt;%3CmxGraphModel%3E%3Croot%3E%3CmxCell%20id%3D%220%22%2F%3E%3CmxCell%20id%3D%221%22%20parent%3D%220%22%2F%3E%3CmxCell%20id%3D%222%22%20value%3D%22%26lt%3Bfont%20color%3D%26quot%3B%23666600%26quot%3B%26gt%3BTrue%26lt%3B%2Ffont%26gt%3B%22%20style%3D%22text%3Bhtml%3D1%3BstrokeColor%3Dnone%3BfillColor%3Dnone%3Balign%3Dcenter%3BverticalAlign%3Dmiddle%3BwhiteSpace%3Dwrap%3Brounded%3D0%3B%22%20vertex%3D%221%22%20parent%3D%221%22%3E%3CmxGeometry%20x%3D%22-250%22%20y%3D%22875%22%20width%3D%2260%22%20height%3D%2230%22%20as%3D%22geometry%22%2F%3E%3C%2FmxCell%3E%3C%2Froot%3E%3C%2FmxGraphModel%3E&lt;/span&gt;&lt;span style=&quot;color: rgba(0, 0, 0, 0); font-family: monospace; font-size: 0px; text-align: start;&quot;&gt;%3CmxGraphModel%3E%3Croot%3E%3CmxCell%20id%3D%220%22%2F%3E%3CmxCell%20id%3D%221%22%20parent%3D%220%22%2F%3E%3CmxCell%20id%3D%222%22%20value%3D%22%26lt%3Bfont%20color%3D%26quot%3B%23666600%26quot%3B%26gt%3BTrue%26lt%3B%2Ffont%26gt%3B%22%20style%3D%22text%3Bhtml%3D1%3BstrokeColor%3Dnone%3BfillColor%3Dnone%3Balign%3Dcenter%3BverticalAlign%3Dmiddle%3BwhiteSpace%3Dwrap%3Brounded%3D0%3B%22%20vertex%3D%221%22%20parent%3D%221%22%3E%3CmxGeometry%20x%3D%22-250%22%20y%3D%22875%22%20width%3D%2260%22%20height%3D%2230%22%20as%3D%22geometry%22%2F%3E%3C%2FmxCell%3E%3C%2Froot%3E%3C%2FmxGraphModel%3E&lt;/span&gt;" style="text;html=1;strokeColor=none;fillColor=none;align=center;verticalAlign=middle;whiteSpace=wrap;rounded=0;fontColor=#666600;" vertex="1" parent="1">
                    <mxGeometry x="3410" y="920" width="60" height="30" as="geometry"/>
                </mxCell>
                <mxCell id="206" value="&lt;font color=&quot;#ff0000&quot;&gt;False&lt;/font&gt;&lt;span style=&quot;color: rgba(0, 0, 0, 0); font-family: monospace; font-size: 0px; text-align: start;&quot;&gt;%3CmxGraphModel%3E%3Croot%3E%3CmxCell%20id%3D%220%22%2F%3E%3CmxCell%20id%3D%221%22%20parent%3D%220%22%2F%3E%3CmxCell%20id%3D%222%22%20value%3D%22%26lt%3Bfont%20color%3D%26quot%3B%23666600%26quot%3B%26gt%3BTrue%26lt%3B%2Ffont%26gt%3B%22%20style%3D%22text%3Bhtml%3D1%3BstrokeColor%3Dnone%3BfillColor%3Dnone%3Balign%3Dcenter%3BverticalAlign%3Dmiddle%3BwhiteSpace%3Dwrap%3Brounded%3D0%3B%22%20vertex%3D%221%22%20parent%3D%221%22%3E%3CmxGeometry%20x%3D%22-250%22%20y%3D%22875%22%20width%3D%2260%22%20height%3D%2230%22%20as%3D%22geometry%22%2F%3E%3C%2FmxCell%3E%3C%2Froot%3E%3C%2FmxGraphModel%3E&lt;/span&gt;&lt;span style=&quot;color: rgba(0, 0, 0, 0); font-family: monospace; font-size: 0px; text-align: start;&quot;&gt;%3CmxGraphModel%3E%3Croot%3E%3CmxCell%20id%3D%220%22%2F%3E%3CmxCell%20id%3D%221%22%20parent%3D%220%22%2F%3E%3CmxCell%20id%3D%222%22%20value%3D%22%26lt%3Bfont%20color%3D%26quot%3B%23666600%26quot%3B%26gt%3BTrue%26lt%3B%2Ffont%26gt%3B%22%20style%3D%22text%3Bhtml%3D1%3BstrokeColor%3Dnone%3BfillColor%3Dnone%3Balign%3Dcenter%3BverticalAlign%3Dmiddle%3BwhiteSpace%3Dwrap%3Brounded%3D0%3B%22%20vertex%3D%221%22%20parent%3D%221%22%3E%3CmxGeometry%20x%3D%22-250%22%20y%3D%22875%22%20width%3D%2260%22%20height%3D%2230%22%20as%3D%22geometry%22%2F%3E%3C%2FmxCell%3E%3C%2Froot%3E%3C%2FmxGraphModel%3E&lt;/span&gt;" style="text;html=1;strokeColor=none;fillColor=none;align=center;verticalAlign=middle;whiteSpace=wrap;rounded=0;fontColor=#666600;" vertex="1" parent="1">
                    <mxGeometry x="3560" y="1070" width="60" height="30" as="geometry"/>
                </mxCell>
                <mxCell id="207" value="&lt;font color=&quot;#ff0000&quot;&gt;False&lt;/font&gt;&lt;span style=&quot;color: rgba(0, 0, 0, 0); font-family: monospace; font-size: 0px; text-align: start;&quot;&gt;%3CmxGraphModel%3E%3Croot%3E%3CmxCell%20id%3D%220%22%2F%3E%3CmxCell%20id%3D%221%22%20parent%3D%220%22%2F%3E%3CmxCell%20id%3D%222%22%20value%3D%22%26lt%3Bfont%20color%3D%26quot%3B%23666600%26quot%3B%26gt%3BTrue%26lt%3B%2Ffont%26gt%3B%22%20style%3D%22text%3Bhtml%3D1%3BstrokeColor%3Dnone%3BfillColor%3Dnone%3Balign%3Dcenter%3BverticalAlign%3Dmiddle%3BwhiteSpace%3Dwrap%3Brounded%3D0%3B%22%20vertex%3D%221%22%20parent%3D%221%22%3E%3CmxGeometry%20x%3D%22-250%22%20y%3D%22875%22%20width%3D%2260%22%20height%3D%2230%22%20as%3D%22geometry%22%2F%3E%3C%2FmxCell%3E%3C%2Froot%3E%3C%2FmxGraphModel%3E&lt;/span&gt;&lt;span style=&quot;color: rgba(0, 0, 0, 0); font-family: monospace; font-size: 0px; text-align: start;&quot;&gt;%3CmxGraphModel%3E%3Croot%3E%3CmxCell%20id%3D%220%22%2F%3E%3CmxCell%20id%3D%221%22%20parent%3D%220%22%2F%3E%3CmxCell%20id%3D%222%22%20value%3D%22%26lt%3Bfont%20color%3D%26quot%3B%23666600%26quot%3B%26gt%3BTrue%26lt%3B%2Ffont%26gt%3B%22%20style%3D%22text%3Bhtml%3D1%3BstrokeColor%3Dnone%3BfillColor%3Dnone%3Balign%3Dcenter%3BverticalAlign%3Dmiddle%3BwhiteSpace%3Dwrap%3Brounded%3D0%3B%22%20vertex%3D%221%22%20parent%3D%221%22%3E%3CmxGeometry%20x%3D%22-250%22%20y%3D%22875%22%20width%3D%2260%22%20height%3D%2230%22%20as%3D%22geometry%22%2F%3E%3C%2FmxCell%3E%3C%2Froot%3E%3C%2FmxGraphModel%3E&lt;/span&gt;" style="text;html=1;strokeColor=none;fillColor=none;align=center;verticalAlign=middle;whiteSpace=wrap;rounded=0;fontColor=#666600;" vertex="1" parent="1">
                    <mxGeometry x="2980" y="1020" width="60" height="30" as="geometry"/>
                </mxCell>
                <mxCell id="208" value="&lt;font color=&quot;#ff0000&quot;&gt;False&lt;/font&gt;&lt;span style=&quot;color: rgba(0, 0, 0, 0); font-family: monospace; font-size: 0px; text-align: start;&quot;&gt;%3CmxGraphModel%3E%3Croot%3E%3CmxCell%20id%3D%220%22%2F%3E%3CmxCell%20id%3D%221%22%20parent%3D%220%22%2F%3E%3CmxCell%20id%3D%222%22%20value%3D%22%26lt%3Bfont%20color%3D%26quot%3B%23666600%26quot%3B%26gt%3BTrue%26lt%3B%2Ffont%26gt%3B%22%20style%3D%22text%3Bhtml%3D1%3BstrokeColor%3Dnone%3BfillColor%3Dnone%3Balign%3Dcenter%3BverticalAlign%3Dmiddle%3BwhiteSpace%3Dwrap%3Brounded%3D0%3B%22%20vertex%3D%221%22%20parent%3D%221%22%3E%3CmxGeometry%20x%3D%22-250%22%20y%3D%22875%22%20width%3D%2260%22%20height%3D%2230%22%20as%3D%22geometry%22%2F%3E%3C%2FmxCell%3E%3C%2Froot%3E%3C%2FmxGraphModel%3E&lt;/span&gt;&lt;span style=&quot;color: rgba(0, 0, 0, 0); font-family: monospace; font-size: 0px; text-align: start;&quot;&gt;%3CmxGraphModel%3E%3Croot%3E%3CmxCell%20id%3D%220%22%2F%3E%3CmxCell%20id%3D%221%22%20parent%3D%220%22%2F%3E%3CmxCell%20id%3D%222%22%20value%3D%22%26lt%3Bfont%20color%3D%26quot%3B%23666600%26quot%3B%26gt%3BTrue%26lt%3B%2Ffont%26gt%3B%22%20style%3D%22text%3Bhtml%3D1%3BstrokeColor%3Dnone%3BfillColor%3Dnone%3Balign%3Dcenter%3BverticalAlign%3Dmiddle%3BwhiteSpace%3Dwrap%3Brounded%3D0%3B%22%20vertex%3D%221%22%20parent%3D%221%22%3E%3CmxGeometry%20x%3D%22-250%22%20y%3D%22875%22%20width%3D%2260%22%20height%3D%2230%22%20as%3D%22geometry%22%2F%3E%3C%2FmxCell%3E%3C%2Froot%3E%3C%2FmxGraphModel%3E&lt;/span&gt;" style="text;html=1;strokeColor=none;fillColor=none;align=center;verticalAlign=middle;whiteSpace=wrap;rounded=0;fontColor=#666600;" vertex="1" parent="1">
                    <mxGeometry x="3220" y="1090" width="60" height="30" as="geometry"/>
                </mxCell>
                <mxCell id="209" value="&lt;font color=&quot;#ff0000&quot;&gt;False&lt;/font&gt;&lt;span style=&quot;color: rgba(0, 0, 0, 0); font-family: monospace; font-size: 0px; text-align: start;&quot;&gt;%3CmxGraphModel%3E%3Croot%3E%3CmxCell%20id%3D%220%22%2F%3E%3CmxCell%20id%3D%221%22%20parent%3D%220%22%2F%3E%3CmxCell%20id%3D%222%22%20value%3D%22%26lt%3Bfont%20color%3D%26quot%3B%23666600%26quot%3B%26gt%3BTrue%26lt%3B%2Ffont%26gt%3B%22%20style%3D%22text%3Bhtml%3D1%3BstrokeColor%3Dnone%3BfillColor%3Dnone%3Balign%3Dcenter%3BverticalAlign%3Dmiddle%3BwhiteSpace%3Dwrap%3Brounded%3D0%3B%22%20vertex%3D%221%22%20parent%3D%221%22%3E%3CmxGeometry%20x%3D%22-250%22%20y%3D%22875%22%20width%3D%2260%22%20height%3D%2230%22%20as%3D%22geometry%22%2F%3E%3C%2FmxCell%3E%3C%2Froot%3E%3C%2FmxGraphModel%3E&lt;/span&gt;&lt;span style=&quot;color: rgba(0, 0, 0, 0); font-family: monospace; font-size: 0px; text-align: start;&quot;&gt;%3CmxGraphModel%3E%3Croot%3E%3CmxCell%20id%3D%220%22%2F%3E%3CmxCell%20id%3D%221%22%20parent%3D%220%22%2F%3E%3CmxCell%20id%3D%222%22%20value%3D%22%26lt%3Bfont%20color%3D%26quot%3B%23666600%26quot%3B%26gt%3BTrue%26lt%3B%2Ffont%26gt%3B%22%20style%3D%22text%3Bhtml%3D1%3BstrokeColor%3Dnone%3BfillColor%3Dnone%3Balign%3Dcenter%3BverticalAlign%3Dmiddle%3BwhiteSpace%3Dwrap%3Brounded%3D0%3B%22%20vertex%3D%221%22%20parent%3D%221%22%3E%3CmxGeometry%20x%3D%22-250%22%20y%3D%22875%22%20width%3D%2260%22%20height%3D%2230%22%20as%3D%22geometry%22%2F%3E%3C%2FmxCell%3E%3C%2Froot%3E%3C%2FmxGraphModel%3E&lt;/span&gt;" style="text;html=1;strokeColor=none;fillColor=none;align=center;verticalAlign=middle;whiteSpace=wrap;rounded=0;fontColor=#666600;" vertex="1" parent="1">
                    <mxGeometry x="3120" y="1180" width="60" height="30" as="geometry"/>
                </mxCell>
                <mxCell id="210" value="&lt;font color=&quot;#ff0000&quot;&gt;False&lt;/font&gt;&lt;span style=&quot;color: rgba(0, 0, 0, 0); font-family: monospace; font-size: 0px; text-align: start;&quot;&gt;%3CmxGraphModel%3E%3Croot%3E%3CmxCell%20id%3D%220%22%2F%3E%3CmxCell%20id%3D%221%22%20parent%3D%220%22%2F%3E%3CmxCell%20id%3D%222%22%20value%3D%22%26lt%3Bfont%20color%3D%26quot%3B%23666600%26quot%3B%26gt%3BTrue%26lt%3B%2Ffont%26gt%3B%22%20style%3D%22text%3Bhtml%3D1%3BstrokeColor%3Dnone%3BfillColor%3Dnone%3Balign%3Dcenter%3BverticalAlign%3Dmiddle%3BwhiteSpace%3Dwrap%3Brounded%3D0%3B%22%20vertex%3D%221%22%20parent%3D%221%22%3E%3CmxGeometry%20x%3D%22-250%22%20y%3D%22875%22%20width%3D%2260%22%20height%3D%2230%22%20as%3D%22geometry%22%2F%3E%3C%2FmxCell%3E%3C%2Froot%3E%3C%2FmxGraphModel%3E&lt;/span&gt;&lt;span style=&quot;color: rgba(0, 0, 0, 0); font-family: monospace; font-size: 0px; text-align: start;&quot;&gt;%3CmxGraphModel%3E%3Croot%3E%3CmxCell%20id%3D%220%22%2F%3E%3CmxCell%20id%3D%221%22%20parent%3D%220%22%2F%3E%3CmxCell%20id%3D%222%22%20value%3D%22%26lt%3Bfont%20color%3D%26quot%3B%23666600%26quot%3B%26gt%3BTrue%26lt%3B%2Ffont%26gt%3B%22%20style%3D%22text%3Bhtml%3D1%3BstrokeColor%3Dnone%3BfillColor%3Dnone%3Balign%3Dcenter%3BverticalAlign%3Dmiddle%3BwhiteSpace%3Dwrap%3Brounded%3D0%3B%22%20vertex%3D%221%22%20parent%3D%221%22%3E%3CmxGeometry%20x%3D%22-250%22%20y%3D%22875%22%20width%3D%2260%22%20height%3D%2230%22%20as%3D%22geometry%22%2F%3E%3C%2FmxCell%3E%3C%2Froot%3E%3C%2FmxGraphModel%3E&lt;/span&gt;" style="text;html=1;strokeColor=none;fillColor=none;align=center;verticalAlign=middle;whiteSpace=wrap;rounded=0;fontColor=#666600;" vertex="1" parent="1">
                    <mxGeometry x="2790" y="1100" width="60" height="30" as="geometry"/>
                </mxCell>
                <mxCell id="211" value="" style="endArrow=none;html=1;" edge="1" parent="1" target="185">
                    <mxGeometry width="50" height="50" relative="1" as="geometry">
                        <mxPoint x="3145" y="1390" as="sourcePoint"/>
                        <mxPoint x="3170" y="1340" as="targetPoint"/>
                    </mxGeometry>
                </mxCell>
                <mxCell id="212" value="" style="endArrow=none;html=1;entryX=0.465;entryY=0.967;entryDx=0;entryDy=0;entryPerimeter=0;" edge="1" parent="1" target="184">
                    <mxGeometry width="50" height="50" relative="1" as="geometry">
                        <mxPoint x="3357" y="1390" as="sourcePoint"/>
                        <mxPoint x="3155" y="1335" as="targetPoint"/>
                    </mxGeometry>
                </mxCell>
                <mxCell id="213" value="" style="endArrow=none;html=1;entryX=0.511;entryY=0.896;entryDx=0;entryDy=0;entryPerimeter=0;" edge="1" parent="1" target="189">
                    <mxGeometry width="50" height="50" relative="1" as="geometry">
                        <mxPoint x="3051" y="1390" as="sourcePoint"/>
                        <mxPoint x="3155" y="1335" as="targetPoint"/>
                        <Array as="points"/>
                    </mxGeometry>
                </mxCell>
                <mxCell id="214" value="" style="endArrow=none;html=1;entryX=0.511;entryY=0.896;entryDx=0;entryDy=0;entryPerimeter=0;" edge="1" parent="1">
                    <mxGeometry width="50" height="50" relative="1" as="geometry">
                        <mxPoint x="2785" y="1390" as="sourcePoint"/>
                        <mxPoint x="2784.71" y="1225" as="targetPoint"/>
                        <Array as="points"/>
                    </mxGeometry>
                </mxCell>
                <mxCell id="215" value="" style="endArrow=none;html=1;entryX=0.473;entryY=0.96;entryDx=0;entryDy=0;entryPerimeter=0;" edge="1" parent="1" target="180">
                    <mxGeometry width="50" height="50" relative="1" as="geometry">
                        <mxPoint x="3457" y="1390" as="sourcePoint"/>
                        <mxPoint x="3470" y="1330" as="targetPoint"/>
                    </mxGeometry>
                </mxCell>
                <mxCell id="216" value="" style="endArrow=none;html=1;" edge="1" parent="1" target="171">
                    <mxGeometry width="50" height="50" relative="1" as="geometry">
                        <mxPoint x="3569.5" y="1392.6" as="sourcePoint"/>
                        <mxPoint x="3569.8" y="1240" as="targetPoint"/>
                    </mxGeometry>
                </mxCell>
                <mxCell id="217" value="" style="endArrow=none;html=1;" edge="1" parent="1">
                    <mxGeometry width="50" height="50" relative="1" as="geometry">
                        <mxPoint x="3835" y="1390" as="sourcePoint"/>
                        <mxPoint x="3835" y="1220" as="targetPoint"/>
                    </mxGeometry>
                </mxCell>
                <mxCell id="218" value="" style="endArrow=none;html=1;" edge="1" parent="1" target="166">
                    <mxGeometry width="50" height="50" relative="1" as="geometry">
                        <mxPoint x="3940" y="1390" as="sourcePoint"/>
                        <mxPoint x="3939.5" y="1215" as="targetPoint"/>
                    </mxGeometry>
                </mxCell>
                <mxCell id="219" value="" style="endArrow=none;html=1;" edge="1" parent="1" target="159">
                    <mxGeometry width="50" height="50" relative="1" as="geometry">
                        <mxPoint x="4072" y="1390" as="sourcePoint"/>
                        <mxPoint x="4072" y="1125" as="targetPoint"/>
                    </mxGeometry>
                </mxCell>
                <mxCell id="220" value="" style="endArrow=none;html=1;entryX=0.417;entryY=1.016;entryDx=0;entryDy=0;entryPerimeter=0;" edge="1" parent="1" target="172">
                    <mxGeometry width="50" height="50" relative="1" as="geometry">
                        <mxPoint x="4310" y="1390" as="sourcePoint"/>
                        <mxPoint x="4310.442307692308" y="1160" as="targetPoint"/>
                    </mxGeometry>
                </mxCell>
                <mxCell id="221" value="" style="endArrow=none;html=1;" edge="1" parent="1">
                    <mxGeometry width="50" height="50" relative="1" as="geometry">
                        <mxPoint x="4500" y="1388.96" as="sourcePoint"/>
                        <mxPoint x="4500" y="1070" as="targetPoint"/>
                    </mxGeometry>
                </mxCell>
                <mxCell id="222" value="" style="endArrow=none;html=1;" edge="1" parent="1">
                    <mxGeometry width="50" height="50" relative="1" as="geometry">
                        <mxPoint x="2780" y="1390" as="sourcePoint"/>
                        <mxPoint x="4501.919921875" y="1390" as="targetPoint"/>
                    </mxGeometry>
                </mxCell>
                <mxCell id="223" value="" style="endArrow=classic;html=1;" edge="1" parent="1">
                    <mxGeometry width="50" height="50" relative="1" as="geometry">
                        <mxPoint x="3530" y="1390" as="sourcePoint"/>
                        <mxPoint x="3530" y="1450" as="targetPoint"/>
                    </mxGeometry>
                </mxCell>
                <mxCell id="224" value="Fin" style="ellipse;whiteSpace=wrap;html=1;fillColor=#e51400;fontColor=#ffffff;strokeColor=#B20000;" vertex="1" parent="1">
                    <mxGeometry x="3470" y="1450" width="120" height="80" as="geometry"/>
                </mxCell>
            </root>
        </mxGraphModel>
    </diagram>
</mxfile>